PathFileType	4	(x/y/z)	S04_PSF_T07.trc
DataRate	CameraRate	NumFrames	NumMarkers	Units	OrigDataRate	OrigDataStartFrame	OrigNumFrames
240	240	7	51	mm	240	1	427
Frame#	Time	Sternum			R.Acromium			L.Acromium			Top.Head			R.ASIS			L.ASIS			R.PSIS			L.PSIS			R.Great.Tro			L.Great.Tro			R.Iliac.Crest			L.Iliac.Crest			V.Sacral			R.Thigh.Upper.Post			R.Thigh.Lower.Ant			R.Thigh.Lower.Post			R.Thigh.Upper.Ant			R.Knee.Lat			R.Knee.Med			R.Shank.Upper.Post			R.Shank.Lower.Ant			R.Shank.Lower.Post			R.Shank.Upper.Ant			R.Ankle.Lat			R.Ankle.Med			R.Heel.Upper			R.Heel.Med			R.Heel.Lat			R.Toe.Lat			R.Toe.Med			R.Toe.Tip			L.Thigh.Upper.Post			L.Thigh.Lower.Ant			L.Thigh.Lower.Post			L.Thigh.Upper.Ant			L.Knee.Lat			L.Knee.Med			L.Shank.Upper.Post			L.Shank.Lower.Ant			L.Shank.Lower.Post			L.Shank.Upper.Ant			L.Ankle.Lat			L.Ankle.Med			L.Heel.Upper			L.Heel.Med			L.Heel.Lat			L.Toe.Lat			L.Toe.Med			L.Toe.Tip			Cervical.Spine			Back			
		X1	Y1	Z1	X2	Y2	Z2	X3	Y3	Z3	X4	Y4	Z4	X5	Y5	Z5	X6	Y6	Z6	X7	Y7	Z7	X8	Y8	Z8	X9	Y9	Z9	X10	Y10	Z10	X11	Y11	Z11	X12	Y12	Z12	X13	Y13	Z13	X14	Y14	Z14	X15	Y15	Z15	X16	Y16	Z16	X17	Y17	Z17	X18	Y18	Z18	X19	Y19	Z19	X20	Y20	Z20	X21	Y21	Z21	X22	Y22	Z22	X23	Y23	Z23	X24	Y24	Z24	X25	Y25	Z25	X26	Y26	Z26	X27	Y27	Z27	X28	Y28	Z28	X29	Y29	Z29	X30	Y30	Z30	X31	Y31	Z31	X32	Y32	Z32	X33	Y33	Z33	X34	Y34	Z34	X35	Y35	Z35	X36	Y36	Z36	X37	Y37	Z37	X38	Y38	Z38	X39	Y39	Z39	X40	Y40	Z40	X41	Y41	Z41	X42	Y42	Z42	X43	Y43	Z43	X44	Y44	Z44	X45	Y45	Z45	X46	Y46	Z46	X47	Y47	Z47	X48	Y48	Z48	X49	Y49	Z49	X50	Y50	Z50	X51	Y51	Z51	

1	0	NaN	NaN	NaN	-1583.6	1486.3	447.68	-1615.7	1472.6	99.906	-1557.6	1811	252.94	NaN	NaN	NaN	NaN	NaN	NaN	NaN	NaN	NaN	NaN	NaN	NaN	-1629.1	901.82	468.09	-1600.8	900.77	89.169	-1607.1	1070.5	448.73	-1604	1070.2	112.13	-1737.7	973.36	256.66	NaN	NaN	NaN	-1633.9	560.44	404.35	-1718.9	572.85	425.64	NaN	NaN	NaN	NaN	NaN	NaN	-1739.6	506.26	283.87	-1858	304.11	391.93	-1811.3	212.86	348.99	-1878.6	239.7	372.28	NaN	NaN	NaN	-1899.3	127.12	345.2	NaN	NaN	NaN	-1968.1	104.45	288.77	-1960.8	71.627	260.11	-1970.1	73.305	323.42	-1803.7	45.919	379.89	-1761.9	43.09	262.22	-1699.8	52.451	313.73	-1540.4	663.22	102.63	NaN	NaN	NaN	-1499.9	585.89	117.99	-1488.9	683.95	81.915	-1422.4	515.58	122.08	-1406.2	509.2	247.19	-1419.4	318.36	129.98	NaN	NaN	NaN	-1379.2	252.94	136.86	-1368.4	340.4	112.28	-1258.4	124.04	143.7	-1253.2	142.44	234.65	-1304.8	61.43	196.38	-1285.4	46.362	229.32	-1287	38.512	168.58	-1126.1	121.41	122.11	-1102	152.29	232.46	-1061	189.04	181.63	-1645.4	1535.1	282.32	-1736.3	1280.8	270.92
2	0.0041667	NaN	NaN	NaN	-1578.2	1485.7	447.21	-1610.8	1471.9	99.444	-1552.7	1810.5	252.38	NaN	NaN	NaN	NaN	NaN	NaN	NaN	NaN	NaN	NaN	NaN	NaN	-1624	901.25	467.83	-1595	900.3	88.915	-1601.5	1069.8	448.48	-1598.6	1069.6	111.88	-1732.2	972.81	256.19	NaN	NaN	NaN	-1629.3	559.92	404.51	-1714.4	572.52	425.55	NaN	NaN	NaN	NaN	NaN	NaN	-1734.9	505.83	283.87	-1855.2	304.88	392.08	-1809.4	213.3	349.11	-1876.4	240.68	372.45	NaN	NaN	NaN	-1898.4	128.34	345.46	NaN	NaN	NaN	-1967.4	106.27	289.07	-1960.2	73.481	260.3	-1969.9	75.347	323.76	-1803.4	46	379.94	-1761.8	43.147	262.31	-1699.4	52.226	313.5	-1534.4	662.87	102.53	NaN	NaN	NaN	-1494	585.6	118.04	-1482.7	683.57	82.193	-1416.6	515.18	122.39	-1400.8	508.76	247.53	-1414.9	317.89	130.2	NaN	NaN	NaN	-1375.2	252.1	137.27	-1362.5	339.21	113.32	-1255.5	122.6	144.39	-1250.4	140.84	235.39	-1302.5	60.603	196.82	-1283.4	45.332	229.8	-1285	37.633	169.06	-1123.4	119.15	123.07	-1099.2	149.69	233.55	-1057.9	186.23	182.86	-1640.4	1534.5	281.83	-1731.1	1280.1	270.72
3	0.0083333	NaN	NaN	NaN	-1572.7	1485.1	446.72	-1605.7	1471.1	98.959	-1547.6	1809.9	251.79	NaN	NaN	NaN	NaN	NaN	NaN	NaN	NaN	NaN	NaN	NaN	NaN	-1618.7	900.66	467.55	-1589	899.84	88.645	-1595.6	1069	448.23	-1592.9	1068.9	111.62	-1726.6	972.26	255.69	NaN	NaN	NaN	-1624.5	559.37	404.68	-1709.6	572.17	425.46	NaN	NaN	NaN	NaN	NaN	NaN	-1730	505.37	283.86	-1852.2	305.7	392.23	-1807.5	213.77	349.24	-1874.1	241.71	372.62	NaN	NaN	NaN	-1897.4	129.63	345.73	NaN	NaN	NaN	-1966.7	108.21	289.39	-1959.7	75.457	260.49	-1969.6	77.491	324.12	-1803.1	46.088	380	-1761.7	43.208	262.4	-1698.9	51.992	313.27	-1528.1	662.54	102.43	NaN	NaN	NaN	-1487.9	585.33	118.1	-1476.3	683.25	82.454	-1410.5	514.77	122.73	-1395.2	508.32	247.88	-1410.2	317.42	130.43	NaN	NaN	NaN	-1371.1	251.25	137.68	-1356.5	338	114.36	-1252.6	121.13	145.1	-1247.6	139.18	236.14	-1300.2	59.811	197.25	-1281.3	44.312	230.29	-1282.9	36.777	169.54	-1120.7	116.77	124.06	-1096.4	146.92	234.67	-1054.7	183.23	184.14	-1635.2	1533.9	281.32	-1725.7	1279.4	270.5
4	0.0125	NaN	NaN	NaN	-1566.9	1484.5	446.21	-1600.3	1470.3	98.452	-1542.3	1809.3	251.18	NaN	NaN	NaN	NaN	NaN	NaN	NaN	NaN	NaN	NaN	NaN	NaN	-1613.1	900.07	467.26	-1582.8	899.39	88.361	-1589.6	1068.3	447.96	-1587	1068.3	111.35	-1720.6	971.71	255.17	NaN	NaN	NaN	-1619.5	558.8	404.84	-1704.5	571.8	425.35	NaN	NaN	NaN	NaN	NaN	NaN	-1724.9	504.88	283.85	-1849.2	306.57	392.39	-1805.4	214.28	349.38	-1871.7	242.81	372.8	NaN	NaN	NaN	-1896.4	131.02	346.02	NaN	NaN	NaN	-1965.8	110.26	289.72	-1959.1	77.556	260.68	-1969.3	79.732	324.49	-1802.8	46.183	380.05	-1761.6	43.275	262.49	-1698.5	51.751	313.04	-1521.7	662.22	102.32	NaN	NaN	NaN	-1481.5	585.06	118.15	-1470	683.01	82.693	-1404.2	514.35	123.08	-1389.4	507.86	248.25	-1405.4	316.96	130.67	NaN	NaN	NaN	-1366.9	250.4	138.1	-1350.4	336.79	115.4	-1249.6	119.62	145.82	-1244.7	137.48	236.92	-1297.8	59.075	197.68	-1279.3	43.323	230.76	-1280.9	35.962	170	-1117.9	114.27	125.08	-1093.5	143.98	235.83	-1051.4	180.03	185.47	-1629.8	1533.2	280.78	-1720.1	1278.6	270.26
5	0.016667	NaN	NaN	NaN	-1561.1	1483.9	445.67	-1594.9	1469.4	97.926	-1536.9	1808.7	250.54	NaN	NaN	NaN	NaN	NaN	NaN	NaN	NaN	NaN	NaN	NaN	NaN	-1607.4	899.47	466.96	-1576.3	898.96	88.062	-1583.4	1067.6	447.68	-1580.9	1067.6	111.06	-1714.6	971.17	254.62	NaN	NaN	NaN	-1614.3	558.22	404.99	-1699.3	571.4	425.23	NaN	NaN	NaN	NaN	NaN	NaN	-1719.6	504.38	283.85	-1845.9	307.48	392.54	-1803.2	214.83	349.52	-1869.2	243.96	372.99	NaN	NaN	NaN	-1895.4	132.48	346.32	NaN	NaN	NaN	-1964.9	112.43	290.06	-1958.4	79.778	260.88	-1968.9	82.067	324.87	-1802.5	46.287	380.11	-1761.5	43.347	262.58	-1698.1	51.505	312.82	-1515	661.93	102.2	NaN	NaN	NaN	-1475.1	584.83	118.2	-1463.6	682.84	82.906	-1397.7	513.95	123.43	-1383.6	507.4	248.62	-1400.4	316.52	130.9	NaN	NaN	NaN	-1362.6	249.55	138.52	-1344.3	335.6	116.4	-1246.6	118.1	146.53	-1241.8	135.75	237.69	-1295.5	58.415	198.09	-1277.4	42.382	231.22	-1278.9	35.206	170.45	-1115.1	111.67	126.12	-1090.7	140.89	237	-1048.1	176.65	186.83	-1624.3	1532.6	280.22	-1714.4	1277.8	270
6	0.020833	NaN	NaN	NaN	-1555.1	1483.4	445.12	-1589.3	1468.6	97.383	-1531.4	1808.1	249.89	NaN	NaN	NaN	NaN	NaN	NaN	NaN	NaN	NaN	NaN	NaN	NaN	-1601.5	898.86	466.64	-1569.7	898.57	87.751	-1577.1	1066.9	447.4	-1574.7	1067	110.76	-1708.3	970.64	254.05	NaN	NaN	NaN	-1608.9	557.62	405.13	-1693.8	570.98	425.11	NaN	NaN	NaN	NaN	NaN	NaN	-1714	503.85	283.84	-1842.6	308.45	392.7	-1800.9	215.43	349.67	-1866.6	245.18	373.18	NaN	NaN	NaN	-1894.3	134.03	346.64	NaN	NaN	NaN	-1963.9	114.73	290.41	-1957.7	82.128	261.08	-1968.3	84.49	325.25	-1802.2	46.403	380.17	-1761.4	43.425	262.67	-1697.7	51.255	312.62	-1508.3	661.67	102.08	NaN	NaN	NaN	-1468.5	584.61	118.24	-1457.2	682.75	83.094	-1391	513.55	123.8	-1377.6	506.94	248.99	-1395.5	316.11	131.12	NaN	NaN	NaN	-1358.3	248.72	138.91	-1338.2	334.42	117.37	-1243.6	116.59	147.25	-1238.9	134.01	238.47	-1293.3	57.847	198.49	-1275.5	41.508	231.66	-1277	34.525	170.87	-1112.4	108.97	127.18	-1087.8	137.65	238.18	-1044.8	173.09	188.21	-1618.6	1531.9	279.65	-1708.5	1277	269.73
7	0.025	NaN	NaN	NaN	-1549.1	1482.8	444.55	-1583.7	1467.9	96.823	-1525.7	1807.6	249.23	NaN	NaN	NaN	NaN	NaN	NaN	NaN	NaN	NaN	NaN	NaN	NaN	-1595.5	898.26	466.3	-1562.9	898.21	87.428	-1570.6	1066.2	447.11	-1568.3	1066.4	110.45	-1701.9	970.15	253.47	NaN	NaN	NaN	-1603.2	557.01	405.26	-1688.1	570.53	424.97	NaN	NaN	NaN	NaN	NaN	NaN	-1708.3	503.3	283.83	-1839.1	309.47	392.86	-1798.5	216.06	349.83	-1863.8	246.46	373.37	NaN	NaN	NaN	-1893.2	135.67	346.97	NaN	NaN	NaN	-1962.8	117.14	290.76	-1956.9	84.608	261.28	-1967.7	86.996	325.63	-1801.9	46.533	380.23	-1761.2	43.512	262.76	-1697.3	51.003	312.43	-1501.4	661.45	101.94	NaN	NaN	NaN	-1461.8	584.43	118.29	-1450.8	682.75	83.26	-1384.3	513.16	124.17	-1371.6	506.48	249.36	-1390.5	315.73	131.32	NaN	NaN	NaN	-1353.9	247.93	139.28	-1332.2	333.29	118.29	-1240.6	115.09	147.95	-1236	132.27	239.23	-1291.1	57.386	198.85	-1273.7	40.716	232.07	-1275.2	33.931	171.27	-1109.7	106.19	128.25	-1085	134.28	239.35	-1041.5	169.37	189.59	-1612.9	1531.3	279.05	-1702.5	1276.3	269.44
